Coordinates
version=1
nRows=60
nColumns=12
inDegrees=yes

Units are S.I. units (second, meters, Newtons, ...)
Angles are in degrees

endheader
time	SC_y	SC_z	SC_x	AC_y	AC_z	AC_x	GH_y	GH_z	GH_yy	EL_x	PS_y
       0.0              -38.79          27.47          30.37          69.06         -13.19          2.086          154.4          16.98          162.5          38.84          10.26
   0.03659              -38.79          27.46          30.37          69.06         -13.19          2.087          154.4          16.99          162.4          38.85          10.27
   0.07318              -38.79          27.46          30.37          69.06         -13.19          2.089          154.3           17.0          162.4          38.86          10.28
    0.1098              -38.79          27.46          30.37          69.05         -13.19          2.091          154.3          17.01          162.4          38.87           10.3
    0.1464               -38.8          27.46          30.36          69.05         -13.19          2.093          154.3          17.02          162.4          38.89          10.31
    0.1829               -38.8          27.45          30.36          69.05         -13.18          2.095          154.2          17.04          162.3           38.9          10.33
    0.2195               -38.8          27.45          30.36          69.04         -13.18          2.097          154.2          17.05          162.3          38.91          10.35
    0.2561              -38.81          27.44          30.36          69.04         -13.18            2.1          154.1          17.06          162.2          38.92          10.36
    0.2927              -38.81          27.44          30.35          69.04         -13.18          2.103          154.1          17.08          162.2          38.94          10.38
    0.3293              -38.81          27.44          30.35          69.03         -13.17          2.105          154.0           17.1          162.2          38.96          10.41
    0.3659              -38.82          27.43          30.35          69.03         -13.17          2.108          154.0          17.11          162.1          38.97          10.43
    0.4025              -38.82          27.43          30.34          69.02         -13.17          2.112          153.9          17.13          162.1          38.99          10.45
    0.4391              -38.83          27.42          30.34          69.02         -13.16          2.115          153.8          17.16          162.0          39.01          10.48
    0.4756              -38.83          27.41          30.34          69.01         -13.16          2.119          153.8          17.18          161.9          39.03          10.51
    0.5122              -38.84          27.41          30.33           69.0         -13.15          2.123          153.7           17.2          161.9          39.06          10.54
    0.5488              -38.85           27.4          30.33           69.0         -13.15          2.128          153.6          17.23          161.8          39.08          10.57
    0.5854              -38.85          27.39          30.32          68.99         -13.14          2.132          153.5          17.26          161.7          39.11          10.61
     0.622              -38.86          27.39          30.32          68.98         -13.14          2.138          153.4          17.29          161.6          39.14          10.65
    0.6586              -38.87          27.38          30.31          68.97         -13.13          2.144          153.3          17.32          161.5          39.17          10.69
    0.6952              -38.88          27.37           30.3          68.97         -13.12           2.15          153.1          17.36          161.4          39.21          10.74
    0.7318              -38.89          27.36           30.3          68.95         -13.12          2.157          153.0           17.4          161.3          39.24          10.79
    0.7683               -38.9          27.34          30.29          68.94         -13.11          2.164          152.9          17.45          161.2          39.29          10.85
    0.8049              -38.91          27.33          30.28          68.93          -13.1          2.173          152.7           17.5          161.1          39.33          10.91
    0.8415              -38.92          27.32          30.27          68.92         -13.09          2.182          152.5          17.55          160.9          39.39          10.98
    0.8781              -38.94           27.3          30.26           68.9         -13.08          2.193          152.3          17.62          160.8          39.45          11.06
    0.9147              -38.96          27.28          30.25          68.88         -13.07          2.204          152.1          17.68          160.6          39.51          11.15
    0.9513              -38.97          27.26          30.23          68.86         -13.05          2.217          151.8          17.76          160.4          39.58          11.25
    0.9879              -38.99          27.24          30.22          68.84         -13.04          2.232          151.5          17.85          160.1          39.67          11.36
     1.024              -39.02          27.21           30.2          68.82         -13.02          2.249          151.2          17.95          159.9          39.76          11.48
     1.061              -39.04          27.18          30.18          68.79          -13.0          2.267          150.8          18.06          159.6          39.86          11.62
     1.098              -39.08          27.15          30.16          68.76         -12.97          2.289          150.4          18.19          159.2          39.98          11.78
     1.134              -39.11          27.11          30.14          68.72         -12.95          2.313          149.9          18.33          158.9          40.12          11.97
     1.171              -39.15          27.07          30.11          68.68         -12.92          2.342          149.4           18.5          158.4          40.28          12.18
     1.207               -39.2          27.02          30.07          68.63         -12.88          2.375          148.7           18.7          157.9          40.47          12.43
     1.244              -39.25          26.96          30.03          68.57         -12.84          2.413          148.0          18.93          157.3          40.68          12.72
     1.281              -39.32          26.88          29.99          68.51         -12.79          2.459          147.1           19.2          156.5          40.94          13.06
     1.317              -39.39           26.8          29.93          68.42         -12.73          2.513          146.0          19.52          155.7          41.24          13.46
     1.354              -39.49           26.7          29.86          68.33         -12.66          2.578          144.8           19.9          154.7           41.6          13.95
      1.39               -39.6          26.58          29.78          68.21         -12.58          2.656          143.2          20.37          153.4          42.04          14.54
     1.427              -39.73          26.43          29.68          68.07         -12.47          2.752          141.3          20.94          151.9          42.58          15.26
     1.464               -39.9          26.24          29.56          67.89         -12.34           2.87          139.0          21.64          150.0          43.24          16.15
       1.5              -40.11          26.01          29.41          67.67         -12.18          3.018          136.1          22.52          147.7          44.07          17.25
     1.537              -40.38          25.72          29.22           67.4         -11.98          3.204          132.5          23.62          144.7          45.11          18.65
     1.573              -40.71          25.35          28.97          67.05         -11.73           3.44          127.8          25.03          141.0          46.43          20.42
      1.61              -41.14          24.88          28.66           66.6          -11.4          3.742          121.9          26.83          136.2          48.13          22.69
     1.646               -41.7          24.28          28.26          66.02         -10.98           4.13          114.3          29.13          130.0           50.3           25.6
     1.683               -42.4          23.51          27.75          65.28         -10.44          4.626          104.6          32.08          122.1          53.08          29.32
      1.72              -43.29          22.53          27.11          64.35         -9.765          5.249          92.35          35.78          112.3          56.57          33.99
     1.756              -44.37          21.35          26.33          63.22         -8.941          6.008          77.45          40.29          100.2          60.83          39.69
     1.793              -45.62          19.98          25.42          61.91         -7.987          6.888          60.18          45.53          86.23          65.76           46.3
     1.829              -46.98          18.49          24.44          60.49         -6.954          7.841          41.48          51.19           71.1           71.1          53.45
     1.866              -48.33           17.0          23.45          59.08          -5.92          8.794          22.78          56.85          55.98          76.44           60.6
     1.903              -49.58          15.63          22.55          57.77         -4.966          9.675          5.515          62.09           42.0          81.37           67.2
     1.939              -50.66          14.45          21.76          56.63         -4.143          10.43         -9.383           66.6          29.95          85.63           72.9
     1.976              -51.55          13.47          21.12          55.71         -3.467          11.06         -21.61           70.3          20.06          89.12          77.58
     2.012              -52.26           12.7          20.61          54.97          -2.93          11.55         -31.33          73.25          12.19           91.9           81.3
     2.049              -52.81           12.1          20.21          54.39         -2.509          11.94         -38.94          75.55          6.036          94.07          84.21
     2.086              -53.24          11.62           19.9          53.94         -2.181          12.24         -44.87          77.35          1.237          95.76          86.48
     2.122              -53.57          11.26          19.66          53.59         -1.925          12.48         -49.51          78.76         -2.512          97.09          88.25
     2.159              -53.84          10.97          19.46          53.31         -1.724          12.66         -53.15          79.86         -5.462          98.13          89.64
